<svg width="116" height="85" viewBox="0 0 116 85" fill="none" xmlns="http://www.w3.org/2000/svg">
<rect x="10" y="85" width="77" height="21" transform="rotate(-90 10 85)" fill="#1BE86D" fill-opacity="0.8"/>
<rect width="77" height="21" transform="matrix(-9.44166e-08 -1 -1 2.02368e-08 21 77)" fill="#B78EDD" fill-opacity="0.94"/>
<path d="M43.5234 55V37.9375H49.5C51.5703 37.9375 53.1406 38.3359 54.2109 39.1328C55.2812 39.9219 55.8164 41.082 55.8164 42.6133C55.8164 43.4492 55.6016 44.1875 55.1719 44.8281C54.7422 45.4609 54.1445 45.9258 53.3789 46.2227C54.2539 46.4414 54.9414 46.8828 55.4414 47.5469C55.9492 48.2109 56.2031 49.0234 56.2031 49.9844C56.2031 51.625 55.6797 52.8672 54.6328 53.7109C53.5859 54.5547 52.0938 54.9844 50.1562 55H43.5234ZM47.0391 47.5703V52.1758H50.0508C50.8789 52.1758 51.5234 51.9805 51.9844 51.5898C52.4531 51.1914 52.6875 50.6445 52.6875 49.9492C52.6875 48.3867 51.8789 47.5938 50.2617 47.5703H47.0391ZM47.0391 45.0859H49.6406C51.4141 45.0547 52.3008 44.3477 52.3008 42.9648C52.3008 42.1914 52.0742 41.6367 51.6211 41.3008C51.1758 40.957 50.4688 40.7852 49.5 40.7852H47.0391V45.0859ZM63.3272 52.1758H70.792V55H59.8116V37.9375H63.3272V52.1758ZM86.4122 37.9375V49.1758C86.4122 51.043 85.8263 52.5195 84.6544 53.6055C83.4903 54.6914 81.8966 55.2344 79.8731 55.2344C77.8809 55.2344 76.2989 54.707 75.127 53.6523C73.9552 52.5977 73.3575 51.1484 73.3341 49.3047V37.9375H76.8497V49.1992C76.8497 50.3164 77.1153 51.1328 77.6466 51.6484C78.1856 52.1562 78.9278 52.4102 79.8731 52.4102C81.8497 52.4102 82.8536 51.3711 82.8848 49.293V37.9375H86.4122ZM93.9933 55H90.4777V37.9375H93.9933V55ZM111.617 49.3164C111.485 51.1523 110.805 52.5977 109.578 53.6523C108.36 54.707 106.75 55.2344 104.75 55.2344C102.563 55.2344 100.84 54.5 99.5822 53.0312C98.3322 51.5547 97.7072 49.5312 97.7072 46.9609V45.918C97.7072 44.2773 97.9963 42.832 98.5744 41.582C99.1525 40.332 99.9767 39.375 101.047 38.7109C102.125 38.0391 103.375 37.7031 104.797 37.7031C106.766 37.7031 108.352 38.2305 109.555 39.2852C110.758 40.3398 111.453 41.8203 111.641 43.7266H108.125C108.039 42.625 107.731 41.8281 107.199 41.3359C106.676 40.8359 105.875 40.5859 104.797 40.5859C103.625 40.5859 102.746 41.0078 102.16 41.8516C101.582 42.6875 101.285 43.9883 101.27 45.7539V47.043C101.27 48.8867 101.547 50.2344 102.102 51.0859C102.664 51.9375 103.547 52.3633 104.75 52.3633C105.836 52.3633 106.645 52.1172 107.176 51.625C107.715 51.125 108.024 50.3555 108.102 49.3164H111.617Z" fill="black" fill-opacity="0.92"/>
<circle cx="95.5" cy="28.5" r="4.5" fill="#B78EDD" fill-opacity="0.94"/>
</svg>
